# xmcd
#
# Track frame offsets:
#	150
#	13180
#	25410
#	37270
#	50342
#	61755
#	76605
#	89027
#	101522
#	113572
#	126187
#	137785
#	148472
#	162060
#	173837
#	185040
#
# Disc length: 2640 seconds
#
# Revision: 1
# Processed by: cddbd v1.5.1PL0 Copyright (c) Steve Scherf et al.
# Submitted via: audiograbber 1.83.01
#
DISCID=de0a4e10
DTITLE=Bob Wills - Stay A Little Longer
DYEAR=2001
DGENRE=Western Swing
TTITLE0=Who Walks In When I Walk Out
TTITLE1=Silver Bells
TTITLE2=I Wonder If You Feel The Way I Do
TTITLE3=Mean Mama Blues
TTITLE4=That Brown Skin Gal
TTITLE5=Sittin' On Top Of The World
TTITLE6=There's Going To Be A Party
TTITLE7=I Ain't Got Nobody
TTITLE8=Time Changes Everything
TTITLE9=Stay A Little Longer
TTITLE10=Home In San Antonio
TTITLE11=I'll See You In My Dreams
TTITLE12=Trouble In Mind
TTITLE13=Steel Guitar Rag
TTITLE14=The Waltz You Saved For Me
TTITLE15=New Worried Mind
EXTD=Compilation album of classics from the man who invented Western Swing.
EXTT0=
EXTT1=
EXTT2=
EXTT3=
EXTT4=
EXTT5=
EXTT6=
EXTT7=
EXTT8=
EXTT9=
EXTT10=
EXTT11=
EXTT12=
EXTT13=
EXTT14=
EXTT15=
PLAYORDER=
